<?xml version="1.0" encoding="utf-8"?>
<!-- Generator: Adobe Illustrator 27.2.0, SVG Export Plug-In . SVG Version: 6.00 Build 0)  -->
<svg version="1.1" id="Layer_1" xmlns="http://www.w3.org/2000/svg" xmlns:xlink="http://www.w3.org/1999/xlink" x="0px" y="0px"
	 viewBox="0 0 897.3 227.7" style="enable-background:new 0 0 897.3 227.7;" xml:space="preserve">
<style type="text/css">
	.st0{fill:#FD5A00;}
	.st1{fill:#FFFFFF;}
</style>
<g id="Layer_1_00000018203362871277609360000004587412703703886726_">
	<rect class="st0" width="226.4" height="226.4"/>
	<path class="st1" d="M66.2,176.2l-25.4-47l0.4,47H24.6V97.5h16.6l25.4,47l-0.4-47h16.6v78.7H66.2z"/>
	<path class="st1" d="M108.4,176.2H91.6V97.4h26.8c21.2,0,28.5,9.7,28.1,24.7c-0.4,13.5-5.4,17.2-13.7,21.2l19.3,32.9h-19.6
		l-15.9-29.5h-8.2L108.4,176.2z M108.4,131.4h11.4c7.5,0,8.4-5,8.4-9.3s-0.9-9.3-8.4-9.3h-11.4V131.4z"/>
	<path class="st1" d="M185.5,95.9c9.1,0,13.2,1.7,16.4,2.9v15.9c-4.6-2.1-9.6-3.1-14.7-3c-12.8,0-18.7,5.1-18.7,25.1
		s5.9,25.1,18.7,25.1c5.1,0.1,10.1-0.9,14.7-3v15.8c-3.1,1.3-7.2,2.9-16.4,2.9c-23,0-33.9-11.2-34-40.8
		C151.6,107.2,162.5,95.9,185.5,95.9z"/>
	<path d="M307.5,97.9v44.8h-5.4l-24.6-36.4l0.5,36.4h-5.6V97.9h5.6l24.3,35.9l-0.2-35.9H307.5z"/>
	<path d="M340.8,143.8c-13.6,0-22.4-9.6-22.4-23.6c0-16.6,11.5-23.6,22.6-23.6c12.6,0,22.5,8.5,22.5,23.1
		C363.5,133.3,355.7,143.8,340.8,143.8z M341,101.5c-11.3,0-16.1,8.7-16.1,18.8c0,9.4,4.6,18.8,16.2,18.8c12.1,0,16.1-10,16-19.2
		C357,109.1,351.3,101.6,341,101.5L341,101.5z"/>
	<path d="M380.3,123.7v19h-5.8V97.9h16.6c6.2,0.1,9.9,0.1,13.4,2.7c3.3,2.5,4.7,6.2,4.7,10.3c0,10.5-8.4,11.9-10.6,12.3l12.6,19.4
		h-7.1l-12.2-19L380.3,123.7z M380.3,118.7h11.9c1.8,0.1,3.7-0.1,5.5-0.4c4.1-1,5.6-4,5.6-7.2c0.1-2.4-0.9-4.7-2.7-6.3
		c-2.4-2-5.3-1.9-8.7-1.9h-11.5L380.3,118.7L380.3,118.7z"/>
	<path d="M471.6,97.9h6.2l-13.7,44.8h-5.8l-11.8-37.1l-11.4,37.1h-6l-13.8-44.8h6.3l10.6,37.1l11.4-37.1h5.8l11.8,37.1L471.6,97.9z"
		/>
	<path d="M492.3,122.3v15.2h25.9v5.2h-31.7V97.9h30.9v5.3h-25.1V117h21.8v5.3H492.3z"/>
	<path d="M568,119v23.7h-5.1v-6.3c-3.8,5.5-10.3,7.4-16.4,7.4c-13.8,0-22.3-9.7-22.3-23c0-11.4,6.9-24.1,23.2-24.1
		c5.7-0.1,11.3,1.9,15.6,5.7c2.1,2.1,3.9,4.5,5.1,7.2l-6.2,1.6c-0.6-2-1.7-3.8-3.1-5.3c-1.8-1.9-5.3-4.4-11.2-4.4
		c-12.6,0-16.8,10.4-16.8,18.5c0,8.4,4.4,18.4,16.6,18.4c5.5,0,15.8-2.7,15.6-14.6h-15.7v-5H568L568,119L568,119z"/>
	<path d="M586.2,97.9v44.8h-6V97.9H586.2z"/>
	<path d="M622.6,129h-17.1l-5,13.7h-6.4l17.1-44.8h6.2l16.3,44.8h-6.3L622.6,129z M620.9,124l-6.5-18.7l-6.9,18.7H620.9z"/>
	<path d="M677.3,97.9v44.8h-5.4l-24.6-36.4l0.5,36.4h-5.6V97.9h5.6l24.3,35.9l-0.2-35.9H677.3z"/>
	<path d="M278.3,196.9v19h-5.8v-44.8h16.6c6.2,0.1,9.9,0.1,13.4,2.7c3.3,2.5,4.7,6.2,4.7,10.4c0,10.5-8.4,11.9-10.6,12.3l12.6,19.4
		h-7.1l-12.2-19H278.3z M278.3,191.9h11.9c1.8,0.1,3.7-0.1,5.5-0.4c4.1-1,5.6-4,5.6-7.2c0.1-2.4-0.9-4.7-2.7-6.3
		c-2.4-2-5.3-1.9-8.7-1.9h-11.5L278.3,191.9L278.3,191.9z"/>
	<path d="M323.7,195.5v15.2h25.9v5.2h-31.7v-44.8h30.9v5.3h-25.1v13.8h21.8v5.3L323.7,195.5L323.7,195.5z"/>
	<path d="M364.5,194.8v21.1h-6V171h28.8v5.3h-22.8v13.3h21.2v5.2L364.5,194.8L364.5,194.8z"/>
	<path d="M429.7,171v28.6c0,2-0.2,3.9-0.6,5.8c-1.3,5.4-6.3,11.5-16.8,11.5c-3.3,0-9.5-0.5-13.8-6c-3-3.8-2.9-7.2-2.9-12.2v-27.8h6
		v27c-0.1,4.1-0.1,7.6,2.3,10.5c2.7,3.3,6.6,3.5,8.4,3.5c5.3,0,9.4-2.5,10.7-7.4c0.5-2.2,0.6-4.4,0.6-6.7V171L429.7,171L429.7,171z"
		/>
	<path d="M484.1,192.2v23.7H479v-6.3c-3.8,5.5-10.3,7.4-16.4,7.4c-13.8,0-22.3-9.7-22.3-23c0-11.4,6.9-24.1,23.2-24.1
		c5.7-0.1,11.3,1.9,15.6,5.7c2.1,2.1,3.9,4.5,5.1,7.2l-6.2,1.6c-0.6-2-1.7-3.8-3.1-5.3c-1.8-1.9-5.3-4.4-11.2-4.4
		c-12.6,0-16.8,10.4-16.8,18.5c0,8.4,4.4,18.4,16.6,18.4c5.5,0,15.8-2.7,15.6-14.6h-15.7v-5L484.1,192.2z"/>
	<path d="M502.3,195.5v15.2h25.9v5.2h-31.7v-44.8h30.9v5.3h-25.1v13.8h21.8v5.3L502.3,195.5L502.3,195.5z"/>
	<path d="M543,195.5v15.2h25.9v5.2h-31.7v-44.8h30.9v5.3H543v13.8h21.8v5.3L543,195.5L543,195.5z"/>
	<path d="M640,199.7c-1.9,8.5-9.1,17.4-22.1,17.4c-14.8,0-21.9-11.1-21.9-23.6c0-12.7,7.3-23.6,22.7-23.6s19.3,10.7,20.4,13.7
		l-6,1.3c-0.5-1.8-1.4-3.5-2.7-5c-2.9-3.4-7.2-5.3-11.7-5.2c-4.8-0.1-9.3,2-12.3,5.6c-2.9,3.6-3.8,8.2-3.8,12.8
		c0,11.1,5.7,18.9,16,18.9c6.7,0,13.5-3.8,14.9-13.2L640,199.7z"/>
	<path d="M669.7,217c-13.6,0-22.4-9.6-22.4-23.6c0-16.6,11.5-23.6,22.6-23.6c12.6,0,22.5,8.5,22.5,23.1
		C692.4,206.5,684.5,217,669.7,217z M669.9,174.8c-11.3,0-16.1,8.7-16.1,18.8c0,9.4,4.6,18.8,16.2,18.8c12.1,0,16.1-10,16-19.2
		C685.8,182.3,680.2,174.8,669.9,174.8L669.9,174.8z"/>
	<path d="M737,171v28.6c0,2-0.2,3.9-0.6,5.8c-1.3,5.4-6.3,11.5-16.8,11.5c-3.3,0-9.5-0.5-13.8-6c-3-3.8-2.9-7.2-2.9-12.2v-27.8h6v27
		c-0.1,4.1-0.1,7.6,2.3,10.5c2.7,3.3,6.6,3.5,8.4,3.5c5.3,0,9.4-2.5,10.7-7.4c0.5-2.2,0.6-4.4,0.6-6.7V171L737,171L737,171z"/>
	<path d="M784.8,171.1v44.8h-5.4l-24.6-36.4l0.5,36.4h-5.5v-44.8h5.6l24.3,35.9l-0.2-35.9L784.8,171.1L784.8,171.1z"/>
	<path d="M839.6,199.7c-1.9,8.5-9.1,17.4-22.1,17.4c-14.8,0-21.9-11.1-21.9-23.6c0-12.7,7.3-23.6,22.7-23.6s19.3,10.7,20.4,13.7
		l-6,1.3c-0.5-1.8-1.4-3.6-2.7-5c-2.9-3.4-7.2-5.3-11.7-5.2c-4.8-0.1-9.3,2-12.3,5.6c-2.9,3.6-3.8,8.2-3.8,12.8
		c0,11.1,5.7,18.9,16,18.9c6.7,0,13.5-3.8,14.8-13.2L839.6,199.7z"/>
	<path d="M854.1,171.1v44.8h-6v-44.8H854.1z"/>
	<path d="M872.2,210.6h21.7v5.3h-27.7V171h6V210.6z"/>
</g>
</svg>
